<svg width="176" height="32" viewBox="0 0 176 32" fill="none" xmlns="http://www.w3.org/2000/svg">
  <!-- Ikon di sebelah kiri -->
  <rect width="32" height="32" rx="4" fill="#3C50E0"/>
  <g>
    <path d="M8.42139 8.42127C8.42139 7.49111 9.17543 6.73706 10.1056 6.73706V6.73706C11.0358 6.73706 11.7898 7.49111 11.7898 8.42127V23.5792C11.7898 24.5093 11.0358 25.2634 10.1056 25.2634V25.2634C9.17543 25.2634 8.42139 24.5093 8.42139 23.5792V8.42127Z" fill="white"/>
    <path d="M14.7368 15.1576C14.7368 14.2274 15.4909 13.4734 16.421 13.4734V13.4734C17.3512 13.4734 18.1052 14.2274 18.1052 15.1576V23.5786C18.1052 24.5088 17.3512 25.2629 16.421 25.2629V25.2629C15.4909 25.2629 14.7368 24.5088 14.7368 23.5786V15.1576Z" fill="white"/>
    <path d="M21.0522 10.9469C21.0522 10.0167 21.8063 9.2627 22.7365 9.2627V9.2627C23.6666 9.2627 24.4207 10.0167 24.4207 10.9469V23.5785C24.4207 24.5086 23.6666 25.2627 22.7365 25.2627V25.2627C21.8063 25.2627 21.0522 24.5086 21.0522 23.5785V10.9469Z" fill="white"/>
  </g>
  <!-- Teks di sebelah kanan -->
  <text x="40" y="20" fill="white" font-family="Arial" font-size="18" font-weight="bold">Monitoring</text>
</svg>
